# 3ds Max Wavefront OBJ Exporter v0.97b - (c)2007 guruware
# 创建的文件:06.11.2018 09:47:15

mtllib 实验仪器模型\等厚干涉\无轴刻度指针\无轴刻度指针.mtl

#
# object Box002
#

v  80.5323 126.3425 -9.2104
v  80.5323 216.3425 -9.2104
v  80.5323 216.3425 9.1024
v  80.5323 126.3425 9.1024
v  64.5323 126.3425 -9.2104
v  64.5323 126.3425 9.1024
v  64.5323 216.3425 9.1024
v  64.5323 216.3425 -9.2104
# 8 vertices

vn 1.0000 0.0000 0.0000
vn -1.0000 -0.0000 -0.0000
vn 0.0000 -1.0000 0.0000
vn -0.0000 0.0000 1.0000
vn -0.0000 1.0000 -0.0000
vn 0.0000 0.0000 -1.0000
# 6 vertex normals

vt 1.0000 0.0000 0.0000
vt 1.0000 1.0000 0.0000
vt 0.0000 1.0000 0.0000
vt 0.0000 0.0000 0.0000
# 4 texture coords

g Box002
usemtl wire_000000000
s 2
f 1/1/1 2/2/1 3/3/1 4/4/1 
s 4
f 5/4/2 6/1/2 7/2/2 8/3/2 
s 8
f 1/4/3 4/1/3 6/2/3 5/3/3 
s 16
f 4/4/4 3/1/4 7/2/4 6/3/4 
s 32
f 3/4/5 2/1/5 8/2/5 7/3/5 
s 64
f 2/4/6 1/1/6 5/2/6 8/3/6 
# 6 polygons

#
# object Box003
#

v  67.4207 129.4018 -19.8011
v  67.4207 275.2664 -19.8011
v  67.4207 275.2664 -10.7836
v  67.4207 129.4018 -10.7836
v  67.4207 275.2664 0.4997
v  67.4207 129.4018 0.4997
v  67.4206 275.2664 11.2656
v  67.4207 129.4018 11.2656
v  67.4206 275.2664 20.8004
v  67.4207 129.4018 20.8004
v  40.3530 129.4018 -19.8011
v  40.3530 129.4018 -10.7836
v  40.3530 275.2664 -10.7836
v  40.3530 275.2664 -19.8011
v  40.3530 129.4018 11.2656
v  40.3530 129.4018 20.8004
v  40.3530 275.2664 20.8004
v  40.3530 275.2664 11.2656
v  58.3981 129.4018 -10.7275
v  58.3981 129.4018 -19.8011
v  58.3981 129.4018 0.4997
v  58.3981 129.4018 11.2828
v  58.3981 129.4018 20.8004
v  49.3755 129.4018 -10.7275
v  49.3755 129.4018 -19.8011
v  49.3755 129.4018 0.4997
v  49.3755 129.4018 11.2828
v  49.3755 129.4018 20.8004
v  58.3981 275.2664 20.8004
v  49.3755 275.2664 20.8004
v  58.3981 275.2664 11.2751
v  58.3981 275.2664 0.4997
v  58.3981 275.2664 -10.8026
v  58.3981 275.2664 -19.8011
v  49.3755 275.2664 11.2751
v  49.3755 275.2664 0.4997
v  49.3755 275.2664 -10.8026
v  49.3755 275.2664 -19.8011
# 38 vertices

vn 1.0000 0.0000 0.0000
vn -1.0000 -0.0000 -0.0000
vn 0.0000 -1.0000 0.0000
vn -0.0000 0.0000 1.0000
vn -0.0000 1.0000 -0.0000
vn 0.0000 0.0000 -1.0000
vn -0.0059 0.0005 1.0000
vn -0.0062 0.0005 1.0000
vn 0.0018 0.0000 1.0000
vn 0.0021 0.0000 1.0000
vn -1.0000 -0.0000 0.0000
vn 0.0019 -0.0000 -1.0000
vn 0.0019 0.0000 -1.0000
vn 0.0011 -0.0001 -1.0000
# 14 vertex normals

vt 1.0000 0.0000 0.0000
vt 1.0000 1.0000 0.0000
vt 0.7500 1.0000 0.0000
vt 0.7500 0.0000 0.0000
vt 0.5000 1.0000 0.0000
vt 0.5000 0.0000 0.0000
vt 0.2500 1.0000 0.0000
vt 0.2500 0.0000 0.0000
vt 0.0000 1.0000 0.0000
vt 0.0000 0.0000 0.0000
vt 0.2500 0.3333 0.0000
vt 0.0000 0.3333 0.0000
vt 0.5000 0.3333 0.0000
vt 0.7500 0.3333 0.0000
vt 1.0000 0.3333 0.0000
vt 0.2500 0.6667 0.0000
vt 0.0000 0.6667 0.0000
vt 0.5000 0.6667 0.0000
vt 0.7500 0.6667 0.0000
vt 1.0000 0.6667 0.0000
# 20 texture coords

g Box003
usemtl wire_114114114
s 2
f 9/5/7 10/6/7 11/7/7 12/8/7 
f 12/8/7 11/7/7 13/9/7 14/10/7 
f 14/10/7 13/9/7 15/11/7 16/12/7 
f 16/12/7 15/11/7 17/13/7 18/14/7 
s 4
f 19/14/8 20/12/8 21/11/8 22/13/8 
f 23/8/8 24/5/8 25/6/8 26/7/8 
s 8
f 9/14/9 12/12/9 27/15/9 28/16/9 
f 12/12/9 14/10/9 29/17/9 27/15/9 
f 14/10/9 16/8/9 30/18/9 29/17/9 
f 16/8/9 18/5/9 31/19/9 30/18/9 
f 28/16/9 27/15/9 32/20/9 33/21/9 
f 27/15/9 29/17/9 34/22/9 32/20/9 
f 29/17/9 30/18/9 35/23/9 34/22/9 
f 30/18/9 31/19/9 36/24/9 35/23/9 
f 33/21/9 32/20/9 20/11/9 19/13/9 
f 35/23/9 36/24/9 24/6/9 23/7/9 
s 16
f 18/14/10 17/5/10 37/19/10 31/16/10 
f 31/16/10 37/19/10 38/24/10 36/21/10 
f 36/21/10 38/24/10 25/6/10 24/13/10 
s 32
f 17/14/11 15/12/11 39/15/11 37/16/11 
f 15/12/11 13/10/11 40/17/11 39/15/11 
f 13/10/11 11/8/11 41/18/11 40/17/11 
f 11/8/11 10/5/11 42/19/11 41/18/11 
f 37/16/11 39/15/11 43/20/11 38/21/11 
f 39/15/11 40/17/11 44/22/11 43/20/11 
f 40/17/11 41/18/11 45/23/11 44/22/11 
f 41/18/11 42/19/11 46/24/11 45/23/11 
f 38/21/11 43/20/11 26/11/11 25/13/11 
f 45/23/11 46/24/11 22/6/11 21/7/11 
s 64
f 10/14/12 9/5/12 28/19/12 42/16/12 
f 42/16/12 28/19/12 33/24/12 46/21/12 
f 46/21/12 33/24/12 19/6/12 22/13/12 
s 1
f 20/11/13 32/20/14 45/23/15 21/7/16 
s 2
f 32/20/8 34/22/8 44/22/8 45/23/17 
f 34/22/8 35/23/17 43/20/8 44/22/8 
s 1
f 35/23/18 23/7/19 26/11/20 43/20/20 
# 36 polygons

#
# object 刻度指针
#

v  67.4206 245.9031 7.5861
v  86.9748 245.9031 7.5861
v  86.9748 247.9031 7.5861
v  69.4206 247.9031 7.5861
v  67.4206 266.2541 7.5861
v  69.4206 266.2541 7.5861
v  67.4206 245.9031 -7.4139
v  86.9748 245.9031 -7.4139
v  67.4206 266.2541 -7.4139
v  69.4206 266.2541 -7.4139
v  69.4206 247.9031 -7.4139
v  86.9748 247.9031 -7.4139
# 12 vertices

vn 0.0000 -0.0000 1.0000
vn 0.0000 -1.0000 -0.0000
vn -1.0000 0.0000 -0.0000
vn 0.0000 1.0000 0.0000
vn 1.0000 0.0000 -0.0000
vn 0.0000 0.0000 -1.0000
# 6 vertex normals

vt 1.0000 0.0000 0.0000
vt 0.0000 0.0000 0.0000
vt 0.0000 0.0983 0.0000
vt 0.8977 0.0983 0.0000
vt 1.0000 1.0000 0.0000
vt 0.8977 1.0000 0.0000
vt 0.2450 0.0000 0.0000
vt 0.0000 1.0000 0.0000
vt 0.2450 1.0000 0.0000
vt 0.5000 0.0000 0.0000
vt 0.5000 1.0000 0.0000
vt 0.5251 0.0000 0.0000
vt 0.5251 1.0000 0.0000
vt 0.7550 0.0000 0.0000
vt 0.7550 1.0000 0.0000
vt 0.9749 0.0000 0.0000
vt 0.9749 1.0000 0.0000
vt 0.8977 0.9017 0.0000
vt 0.0000 0.9017 0.0000
vt 0.8977 0.0000 0.0000
# 20 texture coords

g 刻度指针
usemtl 指针上png
s 1
f 47/25/21 48/26/21 49/27/21 50/28/21 
f 51/29/21 47/25/21 50/28/21 52/30/21 
s 2
f 53/31/22 54/26/22 48/32/22 47/33/22 
s 4
f 55/34/23 53/31/23 47/33/23 51/35/23 
s 2
f 56/36/24 55/34/24 51/35/24 52/37/24 
s 4
f 57/38/25 56/36/25 52/37/25 50/39/25 
s 2
f 58/40/24 57/38/24 50/39/24 49/41/24 
s 4
f 54/25/25 58/40/25 49/41/25 48/29/25 
s 1
f 57/42/26 58/43/26 54/32/26 53/29/26 
f 56/44/26 57/42/26 53/29/26 55/25/26 
# 10 polygons

